#N canvas 1161 303 671 485 10;
#X obj 29 87 inlet~;
#X obj 72 445 outlet~;
#X obj 73 362 *~, f 6;
#X obj 244 18 r a;
#X obj 421 16 r d;
#X obj 453 15 r s;
#X obj 486 15 r r;
#X floatatom 160 75 5 0 0 0 - - -, f 5;
#X obj 249 126 != 0;
#X obj 241 83 * 5000;
#X obj 567 88 * 5000;
#X obj 229 220 pack f f;
#X msg 232 264 1 \$2;
#X obj 581 216 pack f f;
#X msg 586 259 0 \$2;
#X obj 240 180 bng 15 250 50 0 empty empty empty 17 7 0 10 -262144
-1 -1;
#X obj 234 152 spigot;
#X obj 595 191 bng 15 250 50 0 empty empty empty 17 7 0 10 -262144
-1 -1;
#X obj 409 83 * 5000;
#X obj 402 225 pack f f f;
#X msg 392 273 \$3 \$2;
#X obj 389 190 bng 15 250 50 0 empty empty empty 17 7 0 10 -262144
-1 -1;
#X obj 126 34 inlet;
#X obj 260 334 line~, f 7;
#X obj 303 132 delay;
#X obj 354 115 != 0;
#X obj 348 162 spigot;
#X obj 538 117 == 0;
#X obj 531 158 spigot;
#X obj 265 438 outlet~;
#X text 89 421 audio;
#X text 281 408 value;
#X text 22 62 audio;
#X text 90 12 gate.. sort of;
#X obj 268 186 + 40;
#X obj 620 176 + 40;
#X connect 0 0 2 0;
#X connect 2 0 1 0;
#X connect 3 0 9 0;
#X connect 4 0 18 0;
#X connect 5 0 19 2;
#X connect 6 0 10 0;
#X connect 7 0 8 0;
#X connect 7 0 16 0;
#X connect 7 0 25 0;
#X connect 7 0 27 0;
#X connect 7 0 28 0;
#X connect 8 0 16 1;
#X connect 9 0 24 1;
#X connect 9 0 34 0;
#X connect 10 0 35 0;
#X connect 11 0 12 0;
#X connect 12 0 23 0;
#X connect 13 0 14 0;
#X connect 14 0 23 0;
#X connect 15 0 11 0;
#X connect 15 0 24 0;
#X connect 16 0 15 0;
#X connect 17 0 13 0;
#X connect 18 0 19 1;
#X connect 19 0 20 0;
#X connect 20 0 23 0;
#X connect 21 0 19 0;
#X connect 22 0 7 0;
#X connect 23 0 2 1;
#X connect 23 0 29 0;
#X connect 24 0 26 0;
#X connect 25 0 26 1;
#X connect 26 0 21 0;
#X connect 27 0 28 1;
#X connect 28 0 17 0;
#X connect 34 0 11 1;
#X connect 35 0 13 1;
