#N canvas 400 50 1483 896 10;
#X obj 103 765 dac~;
#X obj 629 247 vsl 25 50 0 1 0 0 empty empty Vol 0 -9 0 10 -260097
-1 -1 4900 1;
#X obj 46 36 notein;
#X obj 46 86 pack 0 0 0;
#X obj 26 204 unpack 0 0;
#X obj 538 249 vsl 25 50 0 1 0 0 empty empty Mod 0 -9 0 10 -4034 -1
-1 1852 1;
#X text 1338 175 Setup;
#X obj 1338 198 loadbang;
#X obj 1338 223 delay 500;
#X msg 1338 248 \; pd dsp 1;
#X obj 1287 204 bng 15 250 50 0 empty empty empty 17 7 0 10 -262144
-1 -1;
#X obj 565 97 / 127;
#X text 585 7 ctl;
#X obj 955 269 vsl 25 50 0.01 1 0 0 empty empty D 0 -9 0 10 -191407
-262144 -1 0 1;
#X obj 984 269 vsl 25 50 0 1 0 0 empty empty S 0 -9 0 10 -191407 -262144
-1 4900 1;
#X obj 1013 269 vsl 25 50 0.01 1 0 0 empty empty R 0 -9 0 10 -191407
-262144 -1 1188 1;
#X obj 926 269 vsl 25 50 0.05 1 0 0 empty empty A 0 -9 0 10 -191407
-262144 -1 0 1;
#X obj 569 249 vsl 25 50 20 127 0 0 empty empty Cut 0 -9 0 10 -191407
-262144 -1 4900 1;
#X obj 585 26 apkknobs, f 26;
#X msg 1323 387 127;
#X obj 926 330 s a;
#X obj 955 330 s d;
#X obj 984 330 s s;
#X obj 1013 330 s r;
#X obj 103 135 route 1 2 3 4;
#X obj 103 204 unpack 0 0;
#X obj 180 204 unpack 0 0;
#X obj 256 204 unpack 0 0;
#X obj 12 547 ggee/moog~;
#X obj 17 135 route 1;
#X obj 463 446 sig~;
#X obj 598 249 vsl 25 50 0 4 0 0 empty empty Res 0 -9 0 10 -162280
-1 -1 347 1;
#X obj 614 135 / 127;
#X obj 614 160 * 4;
#X obj 614 185 / 127;
#X obj 91 547 ggee/moog~;
#X obj 172 547 ggee/moog~;
#X obj 254 547 ggee/moog~;
#X obj 1075 270 vsl 25 50 0 1 0 0 empty empty Cut 0 -9 0 10 -13381
-204786 -1 0 1;
#X obj 1108 272 vsl 25 50 0.01 1 1 0 empty empty LFO 0 -9 0 10 -13381
-204786 -1 0 1;
#X obj 712 723 *~ 0;
#X obj 877 664 * 100;
#X obj 872 604 - 0.01;
#X obj 180 302 adsr, f 5;
#X obj 386 387 sig~;
#X obj 286 481 mtof~;
#X obj 804 72 moses 32;
#X obj 804 97 / 32;
#X obj 892 72 - 32;
#X obj 892 122 / 32;
#X obj 892 97 moses 32;
#X obj 941 135 - 32;
#X obj 992 97 / 32;
#X obj 992 72 moses 32;
#X obj 1042 97 - 32;
#X obj 1139 72 / 32;
#X obj 103 302 adsr, f 5;
#X obj 26 302 adsr, f 5;
#X obj 256 302 adsr, f 5;
#X obj 46 61 poly 4 1;
#X floatatom 1108 176 5 0 0 0 - - -, f 5;
#X floatatom 1139 97 5 0 0 0 - - -, f 5;
#X obj 1098 97 expr 1 - $f1;
#X obj 315 446 *~;
#X obj 725 97 / 127;
#X obj 678 97 / 127;
#X obj 1042 269 vsl 25 50 0 1 0 0 empty empty Cut 0 -9 0 10 -262144
-1 -1 0 1;
#X obj 44 471 mtof~;
#X obj 99 481 mtof~;
#X obj 182 481 mtof~;
#X obj 230 446 *~;
#X obj 124 446 *~;
#X obj 44 446 *~;
#X obj 278 352 *~;
#X obj 197 350 *~;
#X obj 124 348 *~;
#X obj 45 352 *~;
#X obj 769 135 / 127;
#X msg 1136 231 1;
#N canvas 0 50 450 250 (subpatch) 0;
#X array array1 100 float 5;
#A 0 0 0 0 0 0 0 0 0 0 0 0 0 0 0 0 0 0 0 0 0 0 0 0 0 0 0 0 0 0 0 0
0 0 0 0 0 0 0 0 0 0 0 0 0 0 0 0 0 0 0 0 0 0 0 0 0 0 0 0 0 0 0 0 0 0
0 0 0 0 0 0 0 0 0 0 0 0 0 0 0 0 0 0 0 0 0 0 0 0 0 0 0 0 0 0 0 0 0 0
0;
#X coords 0 1 99 -1 200 140 1;
#X restore 1220 706 graph;
#X obj 216 726 tabwrite~ array1;
#X obj 523 464 / 2;
#X obj 523 489 s mod;
#X obj 256 229 r mod;
#X obj 181 229 r mod;
#X obj 103 229 r mod;
#X obj 26 232 r mod;
#X obj 180 277 supersaw;
#X obj 26 277 supersaw;
#X obj 256 277 supersaw;
#X obj 103 277 supersaw;
#X obj 125 687 *~ 1;
#X obj 881 700 phasor~;
#X obj 215 700 metro 50;
#X obj 937 663 * 100;
#X obj 932 603 - 0.01;
#X obj 941 699 osc~;
#X obj 1004 625 * 100;
#X obj 1002 598 - 0.01;
#X obj 1008 661 phasor~;
#X obj 1007 701 expr~ $v1 > 0.5;
#X connect 2 0 59 0;
#X connect 2 1 59 1;
#X connect 3 0 24 0;
#X connect 4 0 88 0;
#X connect 4 1 57 1;
#X connect 5 0 81 0;
#X connect 7 0 8 0;
#X connect 8 0 9 0;
#X connect 8 0 19 0;
#X connect 8 0 78 0;
#X connect 8 0 93 0;
#X connect 10 0 8 0;
#X connect 11 0 5 0;
#X connect 13 0 21 0;
#X connect 14 0 22 0;
#X connect 15 0 23 0;
#X connect 16 0 20 0;
#X connect 17 0 44 0;
#X connect 18 0 11 0;
#X connect 18 1 17 0;
#X connect 18 2 32 0;
#X connect 18 3 34 0;
#X connect 18 4 46 0;
#X connect 18 5 77 0;
#X connect 18 6 65 0;
#X connect 18 7 64 0;
#X connect 19 0 17 0;
#X connect 24 0 4 0;
#X connect 24 1 25 0;
#X connect 24 2 26 0;
#X connect 24 3 27 0;
#X connect 25 0 90 0;
#X connect 25 1 56 1;
#X connect 26 0 87 0;
#X connect 26 1 43 1;
#X connect 27 0 89 0;
#X connect 27 1 58 1;
#X connect 28 0 91 0;
#X connect 29 0 4 0;
#X connect 30 0 28 2;
#X connect 30 0 37 2;
#X connect 30 0 36 2;
#X connect 30 0 35 2;
#X connect 31 0 30 0;
#X connect 32 0 33 0;
#X connect 33 0 31 0;
#X connect 34 0 1 0;
#X connect 35 0 91 0;
#X connect 36 0 91 0;
#X connect 37 0 91 0;
#X connect 38 0 40 1;
#X connect 39 0 42 0;
#X connect 39 0 98 0;
#X connect 39 0 95 0;
#X connect 40 0 63 1;
#X connect 40 0 70 1;
#X connect 40 0 71 1;
#X connect 40 0 72 1;
#X connect 41 0 92 0;
#X connect 42 0 41 0;
#X connect 43 0 36 0;
#X connect 43 1 74 0;
#X connect 44 0 63 0;
#X connect 44 0 45 0;
#X connect 44 0 69 0;
#X connect 44 0 68 0;
#X connect 44 0 67 0;
#X connect 44 0 70 0;
#X connect 44 0 71 0;
#X connect 44 0 72 0;
#X connect 45 0 37 1;
#X connect 46 0 47 0;
#X connect 46 1 48 0;
#X connect 47 0 14 0;
#X connect 48 0 50 0;
#X connect 49 0 15 0;
#X connect 50 0 49 0;
#X connect 50 1 51 0;
#X connect 51 0 53 0;
#X connect 52 0 16 0;
#X connect 53 0 52 0;
#X connect 53 1 54 0;
#X connect 54 0 55 0;
#X connect 55 0 13 0;
#X connect 55 0 61 0;
#X connect 55 0 62 0;
#X connect 56 0 35 0;
#X connect 56 1 75 0;
#X connect 57 0 28 0;
#X connect 57 1 76 0;
#X connect 58 0 37 0;
#X connect 58 1 73 0;
#X connect 59 0 3 0;
#X connect 59 1 3 1;
#X connect 59 2 3 2;
#X connect 62 0 60 0;
#X connect 62 0 16 0;
#X connect 62 0 14 0;
#X connect 62 0 15 0;
#X connect 63 0 45 0;
#X connect 64 0 39 0;
#X connect 65 0 38 0;
#X connect 66 0 73 1;
#X connect 66 0 74 1;
#X connect 66 0 75 1;
#X connect 66 0 76 1;
#X connect 67 0 28 1;
#X connect 68 0 35 1;
#X connect 69 0 36 1;
#X connect 70 0 69 0;
#X connect 71 0 68 0;
#X connect 72 0 67 0;
#X connect 73 0 63 1;
#X connect 74 0 70 1;
#X connect 75 0 71 1;
#X connect 76 0 72 1;
#X connect 77 0 66 0;
#X connect 78 0 14 0;
#X connect 81 0 82 0;
#X connect 83 0 89 1;
#X connect 84 0 87 1;
#X connect 85 0 90 1;
#X connect 86 0 88 1;
#X connect 87 0 43 0;
#X connect 88 0 57 0;
#X connect 89 0 58 0;
#X connect 90 0 56 0;
#X connect 91 0 0 0;
#X connect 91 0 0 1;
#X connect 91 0 80 0;
#X connect 92 0 40 0;
#X connect 93 0 80 0;
#X connect 94 0 96 0;
#X connect 95 0 94 0;
#X connect 97 0 99 0;
#X connect 98 0 97 0;
#X connect 99 0 100 0;
