#N canvas 122 371 604 538 10;
#X obj 284 416 outlet~;
#X obj 272 240 mtof;
#X obj 272 266 phasor~;
#X text 371 24 Mod detune;
#X obj 499 240 mtof;
#X obj 495 202 +;
#X obj 498 267 phasor~;
#X obj 67 267 phasor~;
#X text 31 132 -1;
#X text 484 121 +1;
#X obj 169 243 mtof;
#X obj 169 267 phasor~;
#X obj 169 221 -;
#X obj 354 241 mtof;
#X obj 353 268 phasor~;
#X obj 350 203 +;
#X obj 118 244 mtof;
#X obj 118 267 phasor~;
#X obj 118 221 -;
#X text 272 33 note;
#X obj 420 240 mtof;
#X obj 419 267 phasor~;
#X obj 416 202 +;
#X obj 221 347 *~ 0.15;
#X obj 83 346 *~ 0.15;
#X obj 156 347 *~ 0.15;
#X obj 283 346 *~ 0.15;
#X obj 350 347 *~ 0.15;
#X obj 415 346 *~ 0.15;
#X obj 479 344 *~ 0.15;
#X floatatom 103 112 5 0 0 0 - - -, f 5;
#X obj 88 40 loadbang;
#X obj 68 246 mtof;
#X msg 98 74 0;
#X obj 179 305 -~ 0.5;
#X obj 124 307 -~ 0.5;
#X obj 271 306 -~ 0.5;
#X obj 359 308 -~ 0.5;
#X obj 419 307 -~ 0.5;
#X obj 499 309 -~ 0.5;
#X obj 73 306 -~ 0.5;
#X obj 68 223 -;
#X obj 268 52 inlet;
#X obj 377 47 inlet;
#X obj 159 183 / 0.66;
#X obj 212 181 / 0.33;
#X obj 352 174 / 0.33;
#X obj 417 173 / 0.66;
#X floatatom 420 72 5 0 0 0 - - -, f 5;
#X floatatom 543 217 5 0 0 0 - - -, f 5;
#X obj 464 98 bng 15 250 50 0 empty empty empty 17 7 0 10 -262144 -1
-1;
#X connect 1 0 2 0;
#X connect 2 0 36 0;
#X connect 4 0 6 0;
#X connect 5 0 4 0;
#X connect 5 0 49 0;
#X connect 6 0 39 0;
#X connect 7 0 40 0;
#X connect 10 0 11 0;
#X connect 11 0 34 0;
#X connect 12 0 10 0;
#X connect 13 0 14 0;
#X connect 14 0 37 0;
#X connect 15 0 13 0;
#X connect 16 0 17 0;
#X connect 17 0 35 0;
#X connect 18 0 16 0;
#X connect 20 0 21 0;
#X connect 21 0 38 0;
#X connect 22 0 20 0;
#X connect 23 0 0 0;
#X connect 24 0 0 0;
#X connect 25 0 0 0;
#X connect 26 0 0 0;
#X connect 27 0 0 0;
#X connect 28 0 0 0;
#X connect 29 0 0 0;
#X connect 30 0 7 1;
#X connect 30 0 11 0;
#X connect 30 0 11 1;
#X connect 30 0 2 1;
#X connect 30 0 14 1;
#X connect 30 0 21 1;
#X connect 30 0 6 1;
#X connect 31 0 33 0;
#X connect 32 0 7 0;
#X connect 33 0 30 0;
#X connect 34 0 23 0;
#X connect 35 0 25 0;
#X connect 36 0 26 0;
#X connect 37 0 27 0;
#X connect 38 0 28 0;
#X connect 39 0 29 0;
#X connect 40 0 24 0;
#X connect 41 0 32 0;
#X connect 42 0 1 0;
#X connect 42 0 18 0;
#X connect 42 0 12 0;
#X connect 42 0 15 0;
#X connect 42 0 22 0;
#X connect 42 0 41 0;
#X connect 42 0 5 0;
#X connect 43 0 48 0;
#X connect 44 0 18 1;
#X connect 45 0 12 1;
#X connect 46 0 15 1;
#X connect 47 0 22 1;
#X connect 48 0 47 0;
#X connect 48 0 5 1;
#X connect 48 0 46 0;
#X connect 48 0 45 0;
#X connect 48 0 44 0;
#X connect 48 0 41 1;
#X connect 48 0 50 0;
#X connect 50 0 5 0;
#X connect 50 0 22 0;
#X connect 50 0 15 0;
#X connect 50 0 12 0;
#X connect 50 0 18 0;
#X connect 50 0 41 0;
